<svg width="13" height="12" viewBox="0 0 13 12" fill="none" xmlns="http://www.w3.org/2000/svg">
<path d="M5.74505 5H7.04705V12H5.85705V6.918L3.63105 10.502H3.47705L1.25105 6.918V12H0.0470469V5H1.34905L3.54705 8.542L5.74505 5ZM10.2924 0.0579994C10.9551 0.0579994 11.4544 0.202666 11.7904 0.492C12.1264 0.781333 12.2944 1.15 12.2944 1.598C12.2944 1.97133 12.1918 2.27933 11.9864 2.522C11.7904 2.76467 11.5524 2.93267 11.2724 3.026V3.068C11.6364 3.13333 11.9258 3.28733 12.1404 3.53C12.3644 3.76333 12.4764 4.07133 12.4764 4.454C12.4764 4.99533 12.2804 5.43867 11.8884 5.784C11.4964 6.12 10.8851 6.288 10.0544 6.288C9.70909 6.288 9.38709 6.26 9.08842 6.204C8.78976 6.13867 8.50042 6.036 8.22042 5.896V5.014C8.53776 5.16333 8.85509 5.28 9.17242 5.364C9.48976 5.448 9.78842 5.49 10.0684 5.49C10.5538 5.49 10.9084 5.39667 11.1324 5.21C11.3564 5.014 11.4684 4.75267 11.4684 4.426C11.4684 4.09 11.3331 3.84733 11.0624 3.698C10.7918 3.53933 10.4138 3.46 9.92842 3.46H9.13042V2.69H9.92842C10.3951 2.69 10.7358 2.60133 10.9504 2.424C11.1744 2.23733 11.2864 1.99933 11.2864 1.71C11.2864 1.41133 11.1884 1.19667 10.9924 1.066C10.8058 0.925999 10.5771 0.855999 10.3064 0.855999C10.0171 0.855999 9.74642 0.907333 9.49442 1.01C9.25176 1.10333 9.00442 1.22933 8.75242 1.388L8.24842 0.744C8.53776 0.529333 8.84109 0.361333 9.15842 0.24C9.48509 0.118666 9.86309 0.0579994 10.2924 0.0579994Z" fill="#222222"/>
</svg>
