<svg width="80" height="80" viewBox="0 0 80 80" fill="none" xmlns="http://www.w3.org/2000/svg">
<rect width="80" height="80" rx="10" fill="white"/>
<g clip-path="url(#clip0_4414_1538)">
<path d="M48.194 36.218V44.6199L49.1595 43.5497C49.1897 43.5197 49.2199 43.4897 49.2601 43.4597C49.5317 43.2596 49.9239 43.3196 50.125 43.5997L51.3018 45.2001L52.4987 43.5997C52.5288 43.5697 52.5489 43.5297 52.5892 43.5097C52.8406 43.2896 53.2329 43.3096 53.4541 43.5597L54.3895 44.6099V36.228H48.1941L48.194 36.218ZM55.6165 36.218V46.2207C55.6165 46.5608 55.3449 46.8309 54.9929 46.8309C54.7917 46.8309 54.6107 46.7309 54.5001 46.5808L53.0216 44.9205L51.7846 46.5909C51.5834 46.8609 51.1912 46.921 50.9196 46.7209C50.8593 46.6709 50.809 46.6209 50.7688 46.5609L49.5719 44.9305L48.0332 46.6409C47.8018 46.891 47.4196 46.911 47.1682 46.6909C47.0274 46.5709 46.9671 46.4008 46.9671 46.2408V36.2381H40.6007V56.2426H61.9929V36.2381H55.6164L55.6165 36.218ZM32.9976 36.218V46.2207C32.9976 46.3908 32.9272 46.5508 32.7965 46.6708C32.545 46.9009 32.1528 46.8709 31.9315 46.6208L30.3928 44.9105L29.1959 46.5408C29.1557 46.6008 29.1054 46.6608 29.045 46.7009C28.7735 46.9009 28.3812 46.8409 28.1801 46.5708L26.933 44.9105L25.4546 46.5908C25.3439 46.7409 25.1629 46.8409 24.9618 46.8409C24.6198 46.8409 24.3382 46.5708 24.3382 46.2308V36.228H17.9718V56.2326H39.364V36.228H32.9977L32.9976 36.218ZM25.5752 36.218V44.5999L26.5105 43.5497C26.7318 43.2896 27.124 43.2696 27.3755 43.4997L27.466 43.5897L28.6629 45.1901L29.8396 43.5897C30.0407 43.3196 30.4229 43.2596 30.6945 43.4497C30.7347 43.4797 30.7649 43.5097 30.7951 43.5397L31.7706 44.6099V36.208H25.5752L25.5752 36.218ZM44.3126 14.9834V24.9862C44.3126 25.1562 44.2422 25.3263 44.1115 25.4463C43.86 25.6763 43.4678 25.6463 43.2465 25.3963L41.6877 23.6859L40.4908 25.3162C40.4506 25.3763 40.4003 25.4363 40.3399 25.4763C40.0684 25.6763 39.6862 25.6163 39.475 25.3462L38.2279 23.6859L36.7495 25.3462C36.6388 25.4963 36.4578 25.5963 36.2466 25.5963C35.9046 25.5963 35.623 25.3262 35.623 24.9762V14.9835H29.2667V34.9881H50.6791V14.9835L44.3126 14.9834ZM43.0756 14.9834H36.8902V23.3653L37.8256 22.3151C38.0468 22.0551 38.4391 22.0351 38.6905 22.2651L38.781 22.3551L39.9779 23.9555L41.1446 22.3551C41.3457 22.0851 41.7279 22.025 42.0095 22.2151C42.0498 22.2451 42.0799 22.2751 42.1101 22.3051L43.0857 23.3754V14.9834L43.0756 14.9834ZM63.9749 57.4635H15.9804V60.6142H63.9749V57.4635ZM15.9804 61.8445V64.9952H19.5508V61.8445H15.9804ZM60.4043 61.8445V64.9952H63.9747V61.8445H60.4043ZM38.1974 61.8445V64.9952H41.7678V61.8445H38.1974Z" fill="#FF9B04"/>
</g>
<defs>
<clipPath id="clip0_4414_1538">
<rect width="48" height="50" fill="white" transform="translate(16 15)"/>
</clipPath>
</defs>
</svg>
