<svg width="80" height="80" viewBox="0 0 80 80" fill="none" xmlns="http://www.w3.org/2000/svg">
<rect width="80" height="80" rx="10" fill="white"/>
<g clip-path="url(#clip0_4414_1534)">
<path d="M36.3545 15.0264H28.8627C28.3514 15.0264 27.9368 15.441 27.9368 15.9523V23.4192C31.1457 21.0573 33.983 18.2282 36.3545 15.0264Z" fill="#FF9B04"/>
<path d="M44.0254 35.9682C43.5517 36.1604 43.0114 35.9322 42.8188 35.4585C42.6262 34.9844 42.8544 34.4441 43.3285 34.252C46.1373 33.1285 49.0436 32.265 52.0103 31.6722V25.1122C49.6326 25.8248 47.1678 26.2047 44.6855 26.2415H44.5987C44.3532 26.2407 44.118 26.1427 43.9448 25.9687C43.7716 25.7946 43.6744 25.559 43.6749 25.3135C43.6761 24.8022 44.0915 24.3884 44.6028 24.3896C44.6301 24.3913 44.657 24.3913 44.6843 24.3896C47.1727 24.3417 49.6413 23.9296 52.0102 23.1665V15.9521C52.0102 15.7065 51.9127 15.4709 51.739 15.2973C51.5654 15.1237 51.3298 15.0261 51.0843 15.0261H51.031C48.6814 19.0663 43.2495 20.4854 42.9754 20.554C42.4806 20.6751 41.9809 20.3737 41.8569 19.8798C41.7329 19.3854 42.0317 18.884 42.5253 18.7576C42.5778 18.7443 46.5481 17.7018 48.7745 15.0261H38.6765C35.7875 19.2097 32.1454 22.8196 27.9358 25.6706V29.02C30.4911 27.4947 33.1949 26.2335 36.0058 25.256C36.4919 25.0964 37.0152 25.3605 37.1748 25.8462C37.3348 26.3324 37.0706 26.8557 36.5845 27.0152C33.5583 28.0854 30.6582 29.4834 27.9359 31.1843V36.2216C30.2474 34.2396 33.3294 31.8706 35.9253 30.8326C36.4002 30.6424 36.9392 30.8735 37.129 31.3485C37.3191 31.8234 37.0881 32.3624 36.6131 32.5526C33.8399 33.6613 30.3027 36.5721 28.0471 38.5906C28.2008 38.9002 28.5158 39.0974 28.8618 39.0998H51.084C51.3296 39.0998 51.5652 39.0023 51.7388 38.8287C51.9124 38.6551 52.01 38.4194 52.01 38.1739V33.5707C49.283 34.1329 46.611 34.9349 44.0251 35.9678L44.0254 35.9682ZM40.9566 26.0992C40.6718 26.1178 40.3824 26.1463 40.0902 26.1831V26.1835C40.0509 26.1881 40.0112 26.1905 39.972 26.1905C39.483 26.1905 39.0779 25.8107 39.0473 25.3225C39.0167 24.8347 39.3709 24.4069 39.8562 24.3457C40.1882 24.3031 40.5172 24.2709 40.8417 24.2506V24.2511C41.3501 24.225 41.7858 24.6099 41.8234 25.1171C41.8387 25.3626 41.756 25.6036 41.5932 25.7879C41.4307 25.9719 41.2017 26.0839 40.9566 26.0992Z" fill="#FF9B04"/>
<path d="M19.1894 45.6793C19.647 45.4507 20.203 45.6359 20.4319 46.0935C20.6605 46.5511 20.4753 47.107 20.0178 47.336C18.3982 47.9185 16.6948 48.2322 14.9739 48.2648V52.703C19.1018 52.0355 23.0312 50.4659 26.4829 48.1064C26.6842 47.9589 26.9368 47.8989 27.1832 47.9399C27.4295 47.9812 27.6486 48.1201 27.7908 48.3251C27.933 48.5305 27.9867 48.7843 27.9392 49.0295C27.8917 49.2746 27.7474 49.4899 27.5387 49.6272C23.7808 52.2128 19.4844 53.9088 14.9736 54.5871V64.1001C14.9736 64.3456 15.0711 64.5812 15.2447 64.7548C15.4183 64.9285 15.654 65.026 15.8995 65.026H16.3137C18.6459 62.6934 21.0942 60.479 23.6487 58.3916C24.0455 58.0692 24.6288 58.13 24.9513 58.5268C25.2737 58.924 25.2133 59.5073 24.8161 59.8293C22.5914 61.6348 20.5878 63.4602 18.9604 65.026H27.8973C31.043 61.7257 34.8396 59.115 39.0475 57.3595V51.57C36.2751 52.4169 33.635 53.6471 31.2032 55.2253C30.9948 55.363 30.7394 55.4109 30.4951 55.3576C30.2508 55.3047 30.0383 55.1546 29.9061 54.9426C29.7742 54.7301 29.7333 54.4734 29.7936 54.2308C29.8536 53.9881 30.009 53.7798 30.2252 53.6537C32.9459 51.8812 35.9208 50.5337 39.0475 49.6573V41.8778C39.0475 41.6323 38.9499 41.3967 38.7763 41.2231C38.6027 41.0495 38.3671 40.9519 38.1216 40.9519H36.7897C35.4955 41.9349 34.3186 43.0633 33.2827 44.3154C32.401 45.3938 31.4413 46.4058 30.4103 47.3421C30.0295 47.667 29.4599 47.6306 29.1239 47.2602C28.7874 46.8898 28.806 46.3194 29.1661 45.9718C30.1288 45.0963 31.0257 44.1509 31.8491 43.1432C32.4894 42.3669 33.1818 41.6348 33.9209 40.952H15.8997C15.3884 40.952 14.9738 41.3666 14.9738 41.8779V46.4058C16.4073 46.3761 17.8285 46.1314 19.1892 45.6791L19.1894 45.6793ZM28.6926 55.7562C28.8344 55.9567 28.891 56.2051 28.8497 56.4474C28.8087 56.6896 28.6727 56.9054 28.4723 57.0472C28.1656 57.2642 27.8613 57.4841 27.56 57.7065C27.1479 58.0095 26.5683 57.9214 26.2649 57.5093C25.962 57.0976 26.05 56.5176 26.4621 56.2147C26.7726 55.9869 27.0859 55.7604 27.4017 55.5355C27.6022 55.3938 27.8506 55.3371 28.0928 55.3785C28.3346 55.4198 28.5504 55.5558 28.6926 55.7562Z" fill="#FF9B04"/>
<path d="M30.5513 65.0264H38.1216C38.3671 65.0264 38.6027 64.9288 38.7763 64.7552C38.9499 64.5816 39.0475 64.346 39.0475 64.1005V59.3811C35.9275 60.7886 33.0575 62.6954 30.5513 65.0264Z" fill="#FF9B04"/>
<path d="M40.8994 56.4602V64.1003C40.8994 64.3458 40.997 64.5815 41.1706 64.7551C41.3442 64.9287 41.5798 65.0262 41.8254 65.0262H45.615C44.3109 62.0314 42.7322 59.1636 40.8994 56.4602Z" fill="#FF9B04"/>
<path d="M59.0529 51.0623C55.6083 49.5867 52.7193 45.1 50.6811 40.9524H41.9952C44.1286 42.3938 46.1185 44.0368 47.9368 45.8598C48.115 46.0338 48.215 46.2723 48.215 46.5212C48.2154 46.77 48.1154 47.0085 47.9376 47.1826C47.7599 47.357 47.5193 47.4521 47.2709 47.4471C47.022 47.4421 46.7856 47.3371 46.6149 47.1561C44.8667 45.4079 42.9525 43.8339 40.8993 42.4566V53.1275C43.3254 56.6469 46.2263 61.2748 47.5892 65.027H54.9532C53.4626 62.5079 52.4677 59.7273 52.0212 56.8346C51.8827 55.948 51.6562 55.077 51.3454 54.235C51.1693 53.7551 51.4157 53.2227 51.8956 53.0467C52.3759 52.8702 52.9079 53.1165 53.0843 53.5969C53.4374 54.5542 53.6945 55.5446 53.852 56.5528C54.3273 59.5844 55.4579 62.4763 57.1638 65.0271H64.0475C64.3571 65.0234 64.6436 64.8622 64.8077 64.5997C62.4582 60.8277 59.5072 57.4655 56.0717 54.6468C55.8712 54.4984 55.739 54.2752 55.7055 54.028C55.6716 53.7812 55.7385 53.5307 55.8919 53.334C56.0448 53.1372 56.2709 53.0103 56.519 52.9822C56.7666 52.9545 57.0154 53.0277 57.2084 53.1852C60.1519 55.5826 62.7632 58.3612 64.9734 61.4478V55.4347C63.2725 53.6407 61.268 52.1608 59.0529 51.063V51.0623ZM48.599 57.5711H48.5994C48.3663 57.6492 48.1121 57.6315 47.8922 57.5215C47.6727 57.412 47.5053 57.2194 47.428 56.9862C46.8836 55.5477 45.7481 54.4118 44.3096 53.8674C44.0702 53.795 43.8702 53.6289 43.7552 53.4065C43.6403 53.1845 43.6201 52.9253 43.6994 52.6881C43.7784 52.4508 43.9504 52.2557 44.1756 52.147C44.4009 52.0383 44.6609 52.0254 44.8957 52.1114C46.8844 52.8439 48.4522 54.4113 49.1847 56.4C49.2628 56.6331 49.2446 56.8873 49.1351 57.1068C49.0251 57.3263 48.8325 57.4933 48.5998 57.571L48.599 57.5711ZM50.8221 50.9838H50.8225C50.6175 51.1194 50.3674 51.1682 50.1268 51.119C49.8863 51.0698 49.6746 50.9276 49.5394 50.7226C49.341 50.4221 49.1339 50.1269 48.9177 49.8363C48.6135 49.425 48.7003 48.8451 49.1116 48.5413C49.5229 48.2371 50.1028 48.3239 50.4071 48.7352C50.6414 49.0526 50.8667 49.3742 51.0837 49.7008C51.3661 50.1269 51.2491 50.7015 50.8229 50.9838L50.8221 50.9838Z" fill="#FF9B04"/>
<path d="M59.7831 49.3607C61.6874 50.2593 63.4393 51.4519 64.9736 52.8945V41.8776C64.9736 41.6321 64.8761 41.3964 64.7025 41.2228C64.5289 41.0492 64.2933 40.9517 64.0477 40.9517H52.7535C54.5963 44.5558 57.0339 48.1817 59.7832 49.3602L59.7831 49.3607Z" fill="#FF9B04"/>
</g>
<defs>
<clipPath id="clip0_4414_1534">
<rect width="50" height="50" fill="white" transform="translate(15 15)"/>
</clipPath>
</defs>
</svg>
