<svg width="80" height="80" viewBox="0 0 80 80" fill="none" xmlns="http://www.w3.org/2000/svg">
<rect width="80" height="80" rx="10" fill="white"/>
<g clip-path="url(#clip0_4414_1535)">
<path d="M45.346 46.0732C45.6845 46.7073 45.854 47.6584 45.854 48.926C45.854 50.202 45.6845 51.159 45.346 51.7971C45.0076 52.4352 44.4957 52.7542 43.8105 52.7542C43.133 52.7542 42.623 52.4352 42.2807 51.7971C41.9378 51.1591 41.7669 50.2021 41.7669 48.926C41.7669 47.6584 41.9384 46.7073 42.2807 46.0732C42.623 45.439 43.1329 45.122 43.8105 45.122C44.4957 45.122 45.0076 45.439 45.346 46.0732ZM35.1134 43.6155C35.7929 43.6155 36.3021 43.2958 36.6419 42.6565C36.9816 42.0172 37.1511 41.0628 37.1511 39.7932C37.1511 38.523 36.9809 37.5705 36.6419 36.9357C36.3021 36.3009 35.7929 35.9832 35.1134 35.9832C34.4339 35.9832 33.9228 36.3009 33.5791 36.9357C33.2355 37.5704 33.0634 38.5229 33.0634 39.7932C33.0634 41.0634 33.2355 42.0178 33.5791 42.6565C33.9228 43.2958 34.434 43.6155 35.1134 43.6155ZM59.8923 41.411C59.8923 52.7652 50.7436 61.9693 39.4586 61.9693C28.1736 61.9693 19.0248 52.7648 19.0248 41.411C19.0248 33.4787 23.4904 26.5958 30.0301 23.1677C30.9865 25.3213 32.2905 27.1755 33.7211 28.4091C34.7176 29.2685 35.7323 29.7855 36.686 29.9261C37.3176 30.7751 38.3244 31.3239 39.4594 31.3239C41.3716 31.3239 42.9213 29.7646 42.9213 27.8409C42.9213 25.9171 41.3715 24.3579 39.4594 24.3579C37.5984 24.3579 36.0808 25.8357 36.0013 27.6879C35.6642 27.5075 35.3128 27.2614 34.9582 26.9555C33.7313 25.8975 32.5996 24.2725 31.7551 22.3623C34.1326 21.3877 36.7332 20.8512 39.4588 20.8512C50.7441 20.8525 59.8925 30.0569 59.8925 41.4112L59.8923 41.411ZM31.2453 39.799C31.2453 41.1408 31.6051 42.2378 32.3253 43.09C33.0456 43.9422 33.9741 44.368 35.1117 44.368C36.2492 44.368 37.1759 43.9422 37.8922 43.09C38.6079 42.2378 38.9664 41.1408 38.9664 39.799C38.9664 38.4487 38.606 37.3498 37.8864 36.5015C37.1662 35.6539 36.2415 35.2294 35.1123 35.2294C33.9747 35.2294 33.0461 35.6532 32.326 36.5015C31.6057 37.3498 31.2453 38.4488 31.2453 39.799ZM47.5062 34.773H45.9874L31.3923 53.9647H32.9259L47.5062 34.773ZM47.6699 48.9383C47.6699 47.5965 47.3101 46.4995 46.5912 45.6473C45.8723 44.7952 44.945 44.3693 43.8093 44.3693C42.6737 44.3693 41.7464 44.7951 41.0274 45.6473C40.3085 46.4995 39.9487 47.5965 39.9487 48.9383C39.9487 50.2808 40.3079 51.3778 41.0274 52.2293C41.7464 53.0816 42.6737 53.5073 43.8093 53.5073C44.945 53.5073 45.8722 53.0809 46.5912 52.2293C47.3101 51.3771 47.6699 50.2802 47.6699 48.9383ZM33.9605 28.125C35.0819 29.0925 36.1995 29.5905 37.2064 29.5905C37.5959 29.5905 37.9693 29.5156 38.3194 29.3646C39.5126 28.8496 40.2556 27.5138 40.4114 25.6036L39.2557 25.5085C39.1367 26.9675 38.6423 27.9559 37.8625 28.2924C37.0472 28.6446 35.9005 28.2605 34.7157 27.239C33.4028 26.1068 32.1986 24.3541 31.3236 22.3041C30.4493 20.2533 30.0164 18.1675 30.1057 16.4305C30.186 14.8628 30.6998 13.7618 31.5145 13.4103C32.3298 13.0581 33.4765 13.4422 34.6606 14.4637C35.9736 15.5959 37.1778 17.3485 38.0527 19.3992C38.1796 19.6961 38.2986 19.9995 38.408 20.3002L39.4977 19.9011C39.3812 19.5795 39.2537 19.256 39.1185 18.9389C38.1757 16.7279 36.8601 14.8237 35.4157 13.5782C33.8601 12.2371 32.3123 11.7964 31.0575 12.338C29.8021 12.8797 29.0534 14.312 28.948 16.3705C28.8503 18.2827 29.3156 20.5528 30.2584 22.7643C31.2006 24.9753 32.5161 26.879 33.9605 28.125Z" fill="#FF9B04"/>
</g>
<defs>
<clipPath id="clip0_4414_1535">
<rect width="41" height="50" fill="white" transform="translate(19 12)"/>
</clipPath>
</defs>
</svg>
