<svg width="80" height="80" viewBox="0 0 80 80" fill="none" xmlns="http://www.w3.org/2000/svg">
<rect width="80" height="80" rx="10" fill="white"/>
<g clip-path="url(#clip0_4414_1536)">
<path d="M62.3218 45.0259H50.6724C49.1525 45.0305 47.7498 45.8404 46.9913 47.1514C46.2327 48.4623 46.2327 50.0763 46.9913 51.3873C47.7498 52.6983 49.1526 53.5082 50.6724 53.5129H62.3218C62.7662 53.5132 63.1924 53.3372 63.5069 53.0245C63.821 52.7119 63.9975 52.2874 63.9975 51.8451V46.6937C63.9975 46.2514 63.821 45.8269 63.5069 45.5143C63.1923 45.2016 62.7662 45.0259 62.3218 45.0259ZM50.9392 51.3912C50.3739 51.3912 49.8315 51.1676 49.4314 50.7698C49.0318 50.372 48.807 49.8322 48.807 49.2692C48.807 48.7066 49.0318 48.1668 49.4314 47.769C49.8315 47.3712 50.3739 47.1475 50.9392 47.1475C51.5045 47.1475 52.0469 47.3712 52.4466 47.769C52.8467 48.1668 53.071 48.7066 53.071 49.2692C53.071 49.8322 52.8467 50.3721 52.4466 50.7698C52.0469 51.1676 51.5045 51.3912 50.9392 51.3912Z" fill="#FF9B04"/>
<path d="M44.2765 49.2696C44.2784 47.5817 44.953 45.9639 46.1521 44.7705C47.3511 43.5771 48.9767 42.9058 50.6723 42.9038H61.8658V35.6218C61.8658 35.0654 61.6434 34.5318 61.2484 34.1382C60.853 33.7447 60.3164 33.5237 59.7574 33.5237H59.4316C59.6458 32.6039 59.4763 31.6373 58.9611 30.8449L49.7173 16.62C49.2107 15.8426 48.4148 15.2971 47.5043 15.1024C46.5941 14.9082 45.6435 15.0811 44.8612 15.5838L21.0269 30.9251C20.1272 31.5047 19.5437 32.4621 19.4422 33.5238H18.1358C17.5767 33.5238 17.0405 33.7447 16.6451 34.1382C16.2496 34.5318 16.0276 35.0654 16.0276 35.6218V62.8522C16.0276 63.409 16.2497 63.9426 16.6451 64.3361C17.0405 64.7296 17.5766 64.9505 18.1358 64.9505H59.7567C60.3158 64.9505 60.8523 64.7296 61.2477 64.3361C61.6427 63.9425 61.8651 63.4089 61.8651 62.8522V55.6352H50.6716C48.976 55.6333 47.3504 54.9619 46.1514 53.7686C44.9523 52.5752 44.2777 50.9574 44.2758 49.2699L44.2765 49.2696ZM21.4286 33.5241C21.516 33.131 21.7555 32.7882 22.095 32.5691L45.9292 17.2279C46.2733 17.0069 46.6917 16.9307 47.0922 17.0162C47.4927 17.1017 47.8426 17.3417 48.0653 17.6837L48.8414 18.8779L26.0881 33.5237L21.4286 33.5241ZM51.619 23.1527L57.3092 31.909C57.4643 32.1493 57.5487 32.4275 57.5533 32.7131C57.558 32.9982 57.4826 33.2792 57.3356 33.5245H35.5059L51.619 23.1527Z" fill="#FF9B04"/>
</g>
<defs>
<clipPath id="clip0_4414_1536">
<rect width="48" height="50" fill="white" transform="translate(16 15)"/>
</clipPath>
</defs>
</svg>
