<svg width="80" height="80" viewBox="0 0 80 80" fill="none" xmlns="http://www.w3.org/2000/svg">
<rect width="80" height="80" rx="10" fill="white"/>
<path d="M23.1879 38.0044C23.1879 35.321 25.3633 33.1453 28.0466 33.1453C30.73 33.1453 32.9054 35.3207 32.9054 38.0044C32.9054 40.6878 30.7299 42.8632 28.0466 42.8632C25.3635 42.8635 23.1879 40.6881 23.1879 38.0044Z" fill="#FF9B04"/>
<path d="M21.9442 28.7616C21.9442 26.4886 23.7861 24.6465 26.0586 24.6465C28.331 24.6465 30.1737 26.4884 30.1737 28.7616C30.1737 31.034 28.3312 32.8771 26.0586 32.8771C23.7861 32.8769 21.9442 31.0345 21.9442 28.7616Z" fill="#FF9B04"/>
<path d="M27.3849 21.4844C27.3849 18.8869 29.4904 16.7815 32.0883 16.7815C34.6853 16.7815 36.7912 18.887 36.7912 21.4844C36.7912 24.0819 34.6852 26.1877 32.0883 26.1877C29.49 26.1877 27.3849 24.0818 27.3849 21.4844Z" fill="#FF9B04"/>
<path d="M57.8125 30.0208C57.8125 27.8878 56.083 26.1588 53.95 26.1588C52.745 26.1588 51.6706 26.7102 50.9606 27.5738C51.0601 27.1889 51.1122 26.7848 51.1122 26.3688C51.1122 23.6853 48.9372 21.51 46.2534 21.51C43.5709 21.51 41.3947 23.685 41.3947 26.3688C41.3947 29.0522 43.5706 31.2279 46.2534 31.2279C47.8579 31.2279 49.2789 30.4504 50.1644 29.2518C50.1134 29.5009 50.0874 29.7579 50.0874 30.0214C50.0874 30.7014 50.2643 31.3404 50.5729 31.8949C50.0953 31.7719 49.5953 31.7074 49.0799 31.7074C45.778 31.7074 43.1003 34.3843 43.1003 37.6866C43.1003 40.9885 45.7779 43.6658 49.0799 43.6658C52.3825 43.6658 55.0595 40.9888 55.0595 37.6866C55.0595 36.2376 54.543 34.9086 53.6864 33.8736C53.7724 33.8796 53.8604 33.8842 53.9499 33.8842C56.0829 33.884 57.8124 32.154 57.8124 30.021L57.8125 30.0208Z" fill="#FF9B04"/>
<path d="M50.4591 21.9333C50.4591 19.8823 52.1211 18.2202 54.1712 18.2202C56.2231 18.2202 57.8852 19.8822 57.8852 21.9333C57.8852 23.9842 56.2233 25.6468 54.1712 25.6468C52.1211 25.6468 50.4591 23.9844 50.4591 21.9333Z" fill="#FF9B04"/>
<path d="M37.0071 18.748C37.0071 16.6975 38.669 15.0349 40.7185 15.0349C42.7695 15.0349 44.4325 16.6973 44.4325 18.748C44.4325 20.7994 42.7696 22.461 40.7185 22.461C38.669 22.4608 37.0071 20.7989 37.0071 18.748Z" fill="#FF9B04"/>
<path d="M52.2808 47.0421V48.9446H60.2371V58.4567H60.2156V63.5296C60.2156 64.3076 59.5855 64.9386 58.8075 64.9386H56.2431C55.4646 64.9386 54.8341 64.3071 54.8341 63.5296V58.4567H53.4521V63.5296C53.4521 64.3076 52.821 64.9386 52.0431 64.9386H49.4796C48.7011 64.9386 48.0706 64.3071 48.0706 63.5296V54.5396H46.7036V58.4126L33.1761 58.4125V54.5394H31.7291V63.529C31.7291 64.307 31.0981 64.938 30.3201 64.938H27.7562C26.9782 64.938 26.3472 64.3065 26.3472 63.529V58.4569H24.9652V63.5298C24.9652 64.3078 24.3346 64.9388 23.5562 64.9388H20.9927C20.2142 64.9388 19.5842 64.3073 19.5842 63.5298V48.9448L27.545 48.9447V47.0422H19.5837V21.3955H20.9223L22.8953 43.6601H35.7624C34.6065 42.8346 33.8514 41.4832 33.8514 39.953C33.8514 38.3415 34.6894 36.927 35.9525 36.1181C33.3089 35.6931 31.2887 33.4026 31.2887 30.6385C31.2887 27.5724 33.7742 25.0881 36.84 25.0881C39.9054 25.0881 42.3904 27.5726 42.3904 30.6385C42.3904 32.7524 41.2089 34.59 39.4698 35.5277C41.4698 36.0077 42.9558 37.8066 42.9558 39.9535C42.9558 41.4835 42.2008 42.835 41.0449 43.6606H56.7149L58.6864 21.396H60.2373V47.0426H52.2807L52.2808 47.0421ZM34.7333 55.7792C34.7333 56.4013 35.2383 56.9066 35.8603 56.9066C36.4833 56.9066 36.9877 56.4011 36.9877 55.7792C36.9877 55.1561 36.4827 54.6517 35.8603 54.6517C35.2382 54.6517 34.7333 55.1561 34.7333 55.7792ZM38.0307 55.7792C38.0307 56.4013 38.5357 56.9066 39.1581 56.9066C39.7807 56.9066 40.2856 56.4011 40.2856 55.7792C40.2856 55.1561 39.7806 54.6517 39.1581 54.6517C38.5357 54.6517 38.0307 55.1561 38.0307 55.7792ZM42.9324 55.7792C42.9324 56.4013 43.4364 56.9066 44.0593 56.9066C44.6814 56.9066 45.1863 56.4011 45.1863 55.7792C45.1863 55.1561 44.6812 54.6517 44.0593 54.6517C43.4364 54.6517 42.9324 55.1561 42.9324 55.7792Z" fill="#FF9B04"/>
</svg>
