<svg width="80" height="80" viewBox="0 0 80 80" fill="none" xmlns="http://www.w3.org/2000/svg">
<rect width="80" height="80" rx="10" fill="white"/>
<g clip-path="url(#clip0_4414_1533)">
<path d="M27.6831 28.4668L36.4061 21.7902C38.7947 19.9674 41.9496 19.5128 44.7512 20.5886L58.6582 25.9247C59.5641 26.2675 60.5246 26.4416 61.4925 26.438H63.7807C64.1056 26.4366 64.4173 26.5674 64.6453 26.8002C64.8733 27.0334 64.998 27.349 64.9908 27.6758V44.778C64.9908 45.4476 64.4515 45.9899 63.7856 45.9899H60.7622C60.3286 45.991 59.9086 46.1415 59.5723 46.4163L58.883 46.9812C58.7059 47.1227 58.4491 47.0951 58.3059 46.9196L42.1007 27.1165C41.9033 26.874 41.6269 26.7092 41.3208 26.6511C41.0145 26.5927 40.6978 26.6447 40.4256 26.798L33 30.9838C31.5073 31.8224 29.7108 31.9116 28.1429 31.2249C27.6267 31.0013 27.259 30.5295 27.166 29.9721C27.0731 29.4147 27.2679 28.8479 27.6833 28.4671L27.6831 28.4668ZM16.243 45.9799H18.8579L20.6812 43.7354C21.4083 42.8495 22.4332 42.2624 23.5621 42.0854C24.6907 41.9081 25.845 42.1534 26.8057 42.7746C27.7665 43.3958 28.4677 44.3499 28.7761 45.4557C30.345 45.8906 31.5745 47.1172 32.0191 48.6914C33.1651 49.0267 34.1394 49.7912 34.7412 50.8279C35.7311 50.9834 36.6453 51.4531 37.351 52.1685C38.0781 52.9355 38.5366 53.92 38.6574 54.9728C38.7781 56.0257 38.5544 57.0893 38.02 58.0025L37.7749 58.4392C37.7646 58.4506 37.7646 58.4686 37.7749 58.4804C38.3588 58.8899 39.0816 59.0475 39.782 58.9182C40.4821 58.7888 41.102 58.3829 41.5031 57.7915C41.9038 57.1997 42.0531 56.4713 41.9167 55.7684C41.9035 55.7419 41.9135 55.7093 41.9391 55.6946C41.9648 55.6796 41.9975 55.6871 42.0139 55.7118L42.2131 55.9071C42.6623 56.3588 43.2529 56.6404 43.8849 56.7038C44.5169 56.7676 45.1514 56.6096 45.6807 56.2564C46.105 55.9587 46.4342 55.5435 46.628 55.0609C46.8222 54.5787 46.8728 54.0503 46.7737 53.5394C46.7606 53.5129 46.7702 53.4803 46.7958 53.4656C46.8215 53.4506 46.8542 53.4581 46.8706 53.4832L47.0698 53.6784V53.6781C47.5187 54.1284 48.1086 54.4093 48.7395 54.473C49.3705 54.5364 50.0038 54.3792 50.5325 54.0274C50.9625 53.7314 51.2967 53.3159 51.4944 52.8312C51.6925 52.3468 51.7448 51.8145 51.6458 51.3004C51.6326 51.2736 51.6426 51.2413 51.6683 51.2263C51.6939 51.2116 51.7267 51.2191 51.7431 51.2438L51.9679 51.4595C52.3932 51.8844 52.9458 52.1563 53.5403 52.2333C54.1349 52.3103 54.738 52.1882 55.2567 51.8858C55.9432 51.4731 56.4102 50.7735 56.5299 49.9781C56.6496 49.1828 56.4091 48.3753 55.8748 47.7771L54.2403 45.7946L41.0328 29.6324C40.8985 29.4672 40.6655 29.4239 40.4813 29.5296L34.169 33.0837C32.1383 34.2283 29.7102 34.416 27.5296 33.5974C26.329 33.174 25.3804 32.2314 24.9454 31.0295C24.5987 29.7954 24.7569 28.4735 25.3846 27.3572C25.4858 27.1687 25.4801 26.9402 25.37 26.7564C25.2599 26.573 25.0615 26.4616 24.8481 26.4637H16.2426C15.922 26.4623 15.6142 26.5894 15.3873 26.8169C15.16 27.0444 15.0325 27.3532 15.0325 27.6757V44.7779C15.0378 45.4453 15.579 45.9827 16.2427 45.9797L16.243 45.9799ZM25.4669 44.7525V44.7522C24.981 44.4788 24.4139 44.3889 23.8678 44.4992C23.3216 44.6092 22.8328 44.9123 22.4895 45.3533L20.7171 47.5411H20.7174C20.3363 48.0107 20.1589 48.6151 20.2251 49.2176C20.2914 49.8202 20.5956 50.3708 21.0698 50.7459L21.3405 50.9565V50.9562C21.6925 51.2349 22.1196 51.4008 22.5667 51.433C23.0138 51.4649 23.4598 51.3613 23.8481 51.136C23.8852 51.1106 23.934 51.1113 23.9707 51.1378C24.007 51.1643 24.0234 51.2105 24.0113 51.2542C23.9312 51.6637 23.9646 52.0879 24.1089 52.4794C24.2532 52.871 24.5022 53.2145 24.8285 53.4728L25.048 53.6473H25.0483C25.3875 53.916 25.7968 54.0811 26.2268 54.123C26.6568 54.1649 27.0896 54.0818 27.4741 53.8837C27.5125 53.8647 27.5578 53.8683 27.593 53.8927C27.628 53.9174 27.6468 53.9589 27.6426 54.0019C27.5528 54.789 27.8755 55.5667 28.4954 56.0561L28.6486 56.1743C28.9924 56.4448 29.406 56.6106 29.8406 56.6515C30.2752 56.6923 30.7123 56.607 31.1002 56.4054C31.1376 56.3821 31.1847 56.3799 31.2242 56.3996C31.2637 56.4197 31.2901 56.4587 31.294 56.5028C31.3859 57.0699 31.687 57.5815 32.1369 57.9358L32.2338 58.0128C32.7593 58.4266 33.4379 58.5899 34.0927 58.4606C34.7475 58.3316 35.3143 57.9225 35.6456 57.34L35.9776 56.7546C36.2523 56.291 36.3623 55.7476 36.29 55.2131C36.2177 54.6785 35.9669 54.1845 35.579 53.8116C35.2484 53.5103 34.8372 53.3126 34.3962 53.2434C33.9552 53.1739 33.5034 53.2359 33.097 53.4215C33.0752 53.433 33.0489 53.4315 33.0286 53.4176C33.0079 53.4036 32.9972 53.3792 33.0001 53.3545C33.0396 52.5864 32.6908 51.8503 32.0724 51.3974C31.4543 50.9446 30.6502 50.8367 29.9356 51.1101C29.5986 51.1717 29.6702 50.874 29.6702 50.874C29.9092 50.2901 29.896 49.6327 29.6335 49.0591C29.3706 48.4856 28.8822 48.0478 28.2855 47.8515C27.6888 47.6548 27.0375 47.7175 26.4882 48.0234C26.2381 48.0593 26.2688 47.8232 26.2688 47.8232C26.5648 47.3084 26.6467 46.6969 26.4968 46.1215C26.3464 45.5465 25.9763 45.0543 25.4668 44.7519L25.4669 44.7525Z" fill="#FF9B04"/>
</g>
<defs>
<clipPath id="clip0_4414_1533">
<rect width="50" height="39" fill="white" transform="translate(15 20)"/>
</clipPath>
</defs>
</svg>
