<svg width="36" height="36" viewBox="0 0 36 36" fill="none" xmlns="http://www.w3.org/2000/svg">
<circle cx="18" cy="18" r="17.5" stroke="#222222"/>
<path d="M22.0868 11.6979C21.9182 11.7102 21.7528 11.7497 21.5969 11.815H21.5948C21.4452 11.8743 20.7338 12.1736 19.6523 12.6272L15.7768 14.2594C12.9959 15.4301 10.2622 16.583 10.2622 16.583L10.2947 16.5704C10.2947 16.5704 10.1063 16.6324 9.90938 16.7673C9.78775 16.8447 9.68309 16.946 9.60173 17.065C9.50513 17.2067 9.42743 17.4236 9.4563 17.6477C9.50355 18.0268 9.74925 18.2541 9.92565 18.3796C10.1042 18.5066 10.2743 18.566 10.2743 18.566H10.2785L12.842 19.4296C12.957 19.7987 13.6232 21.989 13.7834 22.4935C13.8779 22.7948 13.9697 22.9833 14.0847 23.1272C14.1404 23.2007 14.2055 23.2621 14.2837 23.3114C14.3243 23.3351 14.3677 23.3538 14.4128 23.3671L14.3866 23.3608C14.3945 23.3629 14.4008 23.3692 14.4065 23.3713C14.4275 23.3771 14.4417 23.3792 14.4685 23.3834C14.8743 23.5062 15.2003 23.2542 15.2003 23.2542L15.2187 23.2395L16.7323 21.8614L19.2691 23.8076L19.3268 23.8322C19.8555 24.0643 20.391 23.9351 20.674 23.7073C20.9591 23.4779 21.0698 23.1844 21.0698 23.1844L21.0882 23.1371L23.0486 13.0944C23.1042 12.8466 23.1184 12.6146 23.057 12.3893C22.9936 12.1614 22.8474 11.9653 22.6469 11.8397C22.4786 11.7373 22.2835 11.688 22.0868 11.6979ZM22.0337 12.7742C22.0316 12.8072 22.0379 12.8036 22.0232 12.8671V12.8729L20.0813 22.8111C20.0729 22.8253 20.0587 22.8563 20.0198 22.8872C19.9789 22.9198 19.9463 22.9403 19.7757 22.8725L16.673 20.4938L14.7987 22.2021L15.1925 19.6874L20.2619 14.9624C20.4708 14.7681 20.401 14.7272 20.401 14.7272C20.4157 14.4888 20.0855 14.6573 20.0855 14.6573L13.6931 18.6174L13.691 18.6069L10.6271 17.5753V17.5732L10.6192 17.5716C10.6245 17.5698 10.6298 17.5677 10.6349 17.5653L10.6517 17.5569L10.668 17.5511C10.668 17.5511 13.4038 16.3982 16.1847 15.2275C17.577 14.6411 18.9798 14.0504 20.0587 13.5947C21.1376 13.1417 21.935 12.8093 21.9802 12.7915C22.0232 12.7747 22.0028 12.7747 22.0337 12.7747V12.7742Z" fill="#222222"/>
</svg>
