<svg width="36" height="36" viewBox="0 0 36 36" fill="none" xmlns="http://www.w3.org/2000/svg">
<circle cx="18" cy="18" r="17.5" stroke="#222222"/>
<g clip-path="url(#clip0_47_754)">
<path d="M17.603 10.8026C16.3319 10.8179 13.599 11.0268 12.0704 12.4291C10.9334 13.5558 10.5364 15.2214 10.4899 17.2811C10.4513 19.3334 10.4047 23.1875 14.1197 24.2369V25.8352C14.1197 25.8352 14.0964 26.4748 14.5192 26.6059C15.0399 26.7708 15.3364 26.2787 15.8314 25.7501L16.7546 24.7061C19.2964 24.9175 21.2433 24.4304 21.4675 24.3581C21.9833 24.1933 24.8884 23.8221 25.3631 19.9675C25.8502 15.9867 25.126 13.4785 23.8187 12.344H23.8108C23.4163 11.9807 21.8308 10.8253 18.2886 10.8125C18.2886 10.8125 18.0258 10.7947 17.603 10.8021V10.8026ZM17.6466 11.9218C18.0074 11.9193 18.2267 11.9346 18.2267 11.9346C21.2249 11.9426 22.656 12.8449 22.9936 13.1489C24.0945 14.0923 24.6617 16.3535 24.2464 19.6769C23.8519 22.8994 21.4957 23.1033 21.0596 23.2424C20.874 23.3018 19.1593 23.7245 16.9991 23.5855C16.9991 23.5855 15.3904 25.5268 14.8875 26.0268C14.8078 26.1144 14.7147 26.1401 14.6553 26.1273C14.5702 26.1065 14.5444 26.0011 14.5494 25.8565L14.5647 23.2038C11.414 22.3326 11.5997 19.0453 11.6333 17.3282C11.6719 15.611 11.9942 14.2062 12.9535 13.2548C14.2449 12.0871 16.5655 11.9297 17.6456 11.9218H17.6466ZM17.8842 13.6384C17.8583 13.6382 17.8325 13.643 17.8085 13.6528C17.7844 13.6625 17.7626 13.6769 17.7441 13.6951C17.7257 13.7133 17.711 13.735 17.701 13.7589C17.691 13.7829 17.6858 13.8085 17.6857 13.8344C17.6857 13.9453 17.7758 14.0329 17.8842 14.0329C18.375 14.0236 18.8628 14.1115 19.3194 14.2916C19.7761 14.4718 20.1925 14.7405 20.5448 15.0823C21.264 15.7808 21.6145 16.7193 21.6279 17.9464C21.6279 18.0548 21.7155 18.1449 21.8264 18.1449V18.137C21.8786 18.1371 21.9288 18.1166 21.966 18.0799C22.0032 18.0432 22.0243 17.9932 22.0249 17.941C22.0489 17.3634 21.9552 16.7869 21.7496 16.2467C21.5439 15.7064 21.2305 15.2136 20.8284 14.7982C20.0449 14.0324 19.0519 13.6379 17.8842 13.6379V13.6384ZM15.275 14.0923C15.1349 14.0719 14.992 14.1 14.8701 14.172H14.8597C14.5767 14.3379 14.3218 14.5476 14.1044 14.7933C13.9237 15.0022 13.8257 15.2135 13.7999 15.417C13.7846 15.5382 13.795 15.6595 13.8311 15.7753L13.844 15.7833C14.0474 16.3812 14.3133 16.9564 14.638 17.4979C15.0563 18.2587 15.571 18.9623 16.1695 19.5913L16.1873 19.617L16.2155 19.6378L16.2334 19.6586L16.2541 19.6764C16.8854 20.2767 17.5907 20.7938 18.3529 21.2154C19.2241 21.6896 19.7528 21.9138 20.0701 22.0069V22.0118C20.1632 22.0401 20.2478 22.0529 20.3329 22.0529C20.6034 22.0331 20.8594 21.9233 21.0601 21.7411C21.3046 21.5236 21.512 21.2676 21.6739 20.9832V20.9783C21.8259 20.6922 21.7744 20.4214 21.5551 20.2383C21.1159 19.8544 20.6411 19.5134 20.1369 19.22C19.7993 19.0369 19.4563 19.1478 19.3172 19.3334L19.0207 19.7071C18.8687 19.8928 18.5925 19.867 18.5925 19.867L18.5846 19.872C16.5249 19.3458 15.9755 17.2603 15.9755 17.2603C15.9755 17.2603 15.9497 16.9767 16.1403 16.8322L16.5115 16.5332C16.6893 16.3886 16.813 16.0461 16.6224 15.708C16.3311 15.2032 15.9909 14.7282 15.6067 14.2898C15.5227 14.1865 15.4049 14.1162 15.2741 14.0914L15.275 14.0923ZM18.2267 14.6804C17.9639 14.6804 17.9639 15.0774 18.2292 15.0774C18.556 15.0827 18.8786 15.1524 19.1785 15.2824C19.4784 15.4124 19.7498 15.6003 19.977 15.8352C20.1844 16.0639 20.3437 16.3319 20.4455 16.6233C20.5474 16.9147 20.5897 17.2236 20.5701 17.5316C20.571 17.5837 20.5922 17.6334 20.6293 17.6701C20.6664 17.7067 20.7164 17.7274 20.7685 17.7276L20.7765 17.738C20.829 17.7376 20.8793 17.7166 20.9164 17.6794C20.9535 17.6423 20.9746 17.592 20.975 17.5395C20.9928 16.753 20.7483 16.0931 20.2686 15.5645C19.7865 15.0358 19.1138 14.7393 18.2549 14.6804H18.2267ZM18.5519 15.7476C18.2812 15.7397 18.2708 16.1446 18.5391 16.1525C19.1915 16.1862 19.5083 16.5159 19.5499 17.194C19.5508 17.2455 19.5718 17.2946 19.6084 17.3307C19.6451 17.3669 19.6944 17.3873 19.7459 17.3876H19.7538C19.7803 17.3864 19.8062 17.38 19.8302 17.3687C19.8542 17.3575 19.8757 17.3415 19.8934 17.3218C19.9111 17.3022 19.9248 17.2791 19.9335 17.2541C19.9423 17.2291 19.946 17.2026 19.9444 17.1762C19.8978 16.2921 19.4157 15.7942 18.5599 15.7481H18.5519V15.7476Z" fill="#222222"/>
</g>
<defs>
<clipPath id="clip0_47_754">
<rect width="15.84" height="15.84" fill="white" transform="translate(10.08 10.8)"/>
</clipPath>
</defs>
</svg>
