<svg width="36" height="36" viewBox="0 0 36 36" fill="none" xmlns="http://www.w3.org/2000/svg">
<circle cx="18" cy="18" r="17.5" stroke="#222222"/>
<path d="M22.6531 13.3205C22.048 12.7093 21.3273 12.2247 20.5329 11.8949C19.7386 11.5652 18.8866 11.3969 18.0265 11.3999C14.4229 11.3999 11.4859 14.3369 11.4859 17.9405C11.4859 19.0955 11.7895 20.2175 12.3571 21.2075L11.4331 24.5999L14.8981 23.6891C15.8551 24.2105 16.9309 24.4877 18.0265 24.4877C21.6301 24.4877 24.5671 21.5507 24.5671 17.9471C24.5671 16.1981 23.8873 14.5547 22.6531 13.3205ZM18.0265 23.3789C17.0497 23.3789 16.0927 23.1149 15.2545 22.6199L15.0565 22.5011L12.9973 23.0423L13.5451 21.0359L13.4131 20.8313C12.8704 19.9647 12.5823 18.963 12.5815 17.9405C12.5815 14.9441 15.0235 12.5021 18.0199 12.5021C19.4719 12.5021 20.8381 13.0697 21.8611 14.0993C22.3676 14.6035 22.7691 15.2033 23.0421 15.8638C23.3151 16.5243 23.4544 17.2324 23.4517 17.9471C23.4649 20.9435 21.0229 23.3789 18.0265 23.3789ZM21.0097 19.3133C20.8447 19.2341 20.0395 18.8381 19.8943 18.7787C19.7425 18.7259 19.6369 18.6995 19.5247 18.8579C19.4125 19.0229 19.1023 19.3925 19.0099 19.4981C18.9175 19.6103 18.8185 19.6235 18.6535 19.5377C18.4885 19.4585 17.9605 19.2803 17.3401 18.7259C16.8517 18.2903 16.5283 17.7557 16.4293 17.5907C16.3369 17.4257 16.4161 17.3399 16.5019 17.2541C16.5745 17.1815 16.6669 17.0627 16.7461 16.9703C16.8253 16.8779 16.8583 16.8053 16.9111 16.6997C16.9639 16.5875 16.9375 16.4951 16.8979 16.4159C16.8583 16.3367 16.5283 15.5315 16.3963 15.2015C16.2643 14.8847 16.1257 14.9243 16.0267 14.9177H15.7099C15.5977 14.9177 15.4261 14.9573 15.2743 15.1223C15.1291 15.2873 14.7067 15.6833 14.7067 16.4885C14.7067 17.2937 15.2941 18.0725 15.3733 18.1781C15.4525 18.2903 16.5283 19.9403 18.1651 20.6465C18.5545 20.8181 18.8581 20.9171 19.0957 20.9897C19.4851 21.1151 19.8415 21.0953 20.1253 21.0557C20.4421 21.0095 21.0955 20.6597 21.2275 20.2769C21.3661 19.8941 21.3661 19.5707 21.3199 19.4981C21.2737 19.4255 21.1747 19.3925 21.0097 19.3133Z" fill="#222222"/>
</svg>
